<svg width="41" height="41" viewBox="0 0 41 41" fill="none" xmlns="http://www.w3.org/2000/svg">
<path d="M6.7937 16.1349C6.7937 16.8106 6.97264 17.4586 7.29116 17.9363C7.60967 18.4141 8.04167 18.6825 8.49211 18.6825C8.94256 18.6825 9.37456 18.4141 9.69307 17.9363C10.0116 17.4586 10.1905 16.8106 10.1905 16.1349C10.1905 15.4592 10.0116 14.8112 9.69307 14.3335C9.37456 13.8557 8.94256 13.5873 8.49211 13.5873C8.04167 13.5873 7.60967 13.8557 7.29116 14.3335C6.97264 14.8112 6.7937 15.4592 6.7937 16.1349Z" stroke="#EEEEEE" stroke-width="5.09524" stroke-linecap="round" stroke-linejoin="round"/>
<path d="M24.5641 19.6948C26.7415 22.7078 30.4678 25.4966 30.4678 25.4966C30.4678 25.4966 33.7305 28.1699 31.475 31.672C29.2195 35.1758 23.1663 33.6286 23.1663 33.6286C23.1663 33.6286 20.7614 32.8813 17.9692 33.4791C15.177 34.0837 12.7721 33.8527 12.7721 33.8527C12.7721 33.8527 9.28182 33.4791 8.57698 29.9396C7.87044 26.4001 11.8345 23.7608 12.147 23.3871C12.4562 23.0101 14.5401 21.7465 16.0262 19.3211C17.5123 16.8958 21.6938 15.4369 24.5641 19.6965V19.6948Z" stroke="#EEEEEE" stroke-width="5.09524" stroke-linecap="round" stroke-linejoin="round"/>
<path d="M13.5873 7.64283C13.5873 8.3185 13.7662 8.9665 14.0847 9.44427C14.4032 9.92204 14.8352 10.1905 15.2857 10.1905C15.7361 10.1905 16.1681 9.92204 16.4867 9.44427C16.8052 8.9665 16.9841 8.3185 16.9841 7.64283C16.9841 6.96716 16.8052 6.31917 16.4867 5.8414C16.1681 5.36362 15.7361 5.09521 15.2857 5.09521C14.8352 5.09521 14.4032 5.36362 14.0847 5.8414C13.7662 6.31917 13.5873 6.96716 13.5873 7.64283Z" stroke="#EEEEEE" stroke-width="5.09524" stroke-linecap="round" stroke-linejoin="round"/>
<path d="M23.7778 7.64283C23.7778 8.3185 23.9568 8.9665 24.2753 9.44427C24.5938 9.92204 25.0258 10.1905 25.4762 10.1905C25.9267 10.1905 26.3587 9.92204 26.6772 9.44427C26.9957 8.9665 27.1747 8.3185 27.1747 7.64283C27.1747 6.96716 26.9957 6.31917 26.6772 5.8414C26.3587 5.36362 25.9267 5.09521 25.4762 5.09521C25.0258 5.09521 24.5938 5.36362 24.2753 5.8414C23.9568 6.31917 23.7778 6.96716 23.7778 7.64283Z" stroke="#EEEEEE" stroke-width="5.09524" stroke-linecap="round" stroke-linejoin="round"/>
<path d="M30.5714 16.1349C30.5714 16.8106 30.7503 17.4586 31.0689 17.9363C31.3874 18.4141 31.8194 18.6825 32.2698 18.6825C32.7203 18.6825 33.1523 18.4141 33.4708 17.9363C33.7893 17.4586 33.9682 16.8106 33.9682 16.1349C33.9682 15.4592 33.7893 14.8112 33.4708 14.3335C33.1523 13.8557 32.7203 13.5873 32.2698 13.5873C31.8194 13.5873 31.3874 13.8557 31.0689 14.3335C30.7503 14.8112 30.5714 15.4592 30.5714 16.1349Z" stroke="#EEEEEE" stroke-width="5.09524" stroke-linecap="round" stroke-linejoin="round"/>
</svg>
