<svg width="40" height="40" viewBox="0 0 40 40" fill="none" xmlns="http://www.w3.org/2000/svg">
<path d="M23.3285 6.66667C23.9298 6.66666 24.5199 6.82932 25.0363 7.1374C25.5528 7.44548 25.9762 7.88752 26.2618 8.41667L27.0718 9.91667C27.3575 10.4458 27.7809 10.8879 28.2973 11.1959C28.8137 11.504 29.4038 11.6667 30.0052 11.6667H33.3335C34.2176 11.6667 35.0654 12.0179 35.6905 12.643C36.3156 13.2681 36.6668 14.1159 36.6668 15V30C36.6668 30.8841 36.3156 31.7319 35.6905 32.357C35.0654 32.9821 34.2176 33.3333 33.3335 33.3333H6.66683C5.78277 33.3333 4.93493 32.9821 4.30981 32.357C3.68469 31.7319 3.3335 30.8841 3.3335 30V15C3.3335 14.1159 3.68469 13.2681 4.30981 12.643C4.93493 12.0179 5.78277 11.6667 6.66683 11.6667H9.99516C10.5959 11.6667 11.1854 11.5044 11.7015 11.1969C12.2175 10.8895 12.6409 10.4483 12.9268 9.92001L13.7418 8.41334C14.0278 7.88505 14.4511 7.44386 14.9672 7.13639C15.4832 6.82893 16.0728 6.66664 16.6735 6.66667H23.3285Z" stroke="#5A9690" stroke-width="3.33333" stroke-linecap="round" stroke-linejoin="round"/>
<path d="M20 26.6667C22.7614 26.6667 25 24.4281 25 21.6667C25 18.9052 22.7614 16.6667 20 16.6667C17.2386 16.6667 15 18.9052 15 21.6667C15 24.4281 17.2386 26.6667 20 26.6667Z" stroke="#5A9690" stroke-width="3.33333" stroke-linecap="round" stroke-linejoin="round"/>
</svg>
