<svg width="24" height="24" viewBox="0 0 24 24" fill="none" xmlns="http://www.w3.org/2000/svg">
<path d="M4 6C4 7.657 7.582 9 12 9C16.418 9 20 7.657 20 6C20 4.343 16.418 3 12 3C7.582 3 4 4.343 4 6Z" stroke="#2F5755" stroke-width="2" stroke-linecap="round" stroke-linejoin="round"/>
<path d="M4 6V12C4 13.657 7.582 15 12 15C12.21 15 12.42 14.997 12.626 14.99" stroke="#2F5755" stroke-width="2" stroke-linecap="round" stroke-linejoin="round"/>
<path d="M20 11.5V6" stroke="#2F5755" stroke-width="2" stroke-linecap="round" stroke-linejoin="round"/>
<path d="M4 12V18C4 19.657 7.582 21 12 21" stroke="#2F5755" stroke-width="2" stroke-linecap="round" stroke-linejoin="round"/>
<path d="M17.001 19C17.001 19.5304 17.2117 20.0391 17.5868 20.4142C17.9618 20.7893 18.4705 21 19.001 21C19.5314 21 20.0401 20.7893 20.4152 20.4142C20.7903 20.0391 21.001 19.5304 21.001 19C21.001 18.4696 20.7903 17.9609 20.4152 17.5858C20.0401 17.2107 19.5314 17 19.001 17C18.4705 17 17.9618 17.2107 17.5868 17.5858C17.2117 17.9609 17.001 18.4696 17.001 19Z" stroke="#2F5755" stroke-width="2" stroke-linecap="round" stroke-linejoin="round"/>
<path d="M19.001 15.5V17" stroke="#2F5755" stroke-width="2" stroke-linecap="round" stroke-linejoin="round"/>
<path d="M19.001 21V22.5" stroke="#2F5755" stroke-width="2" stroke-linecap="round" stroke-linejoin="round"/>
<path d="M22.032 17.25L20.733 18" stroke="#2F5755" stroke-width="2" stroke-linecap="round" stroke-linejoin="round"/>
<path d="M17.27 20L15.97 20.75" stroke="#2F5755" stroke-width="2" stroke-linecap="round" stroke-linejoin="round"/>
<path d="M15.97 17.25L17.27 18" stroke="#2F5755" stroke-width="2" stroke-linecap="round" stroke-linejoin="round"/>
<path d="M20.733 20L22.033 20.75" stroke="#2F5755" stroke-width="2" stroke-linecap="round" stroke-linejoin="round"/>
</svg>
