<svg viewBox="0 0 20 20" fill="none" xmlns="http://www.w3.org/2000/svg">
<path d="M4.99967 18.3337C4.55765 18.3337 4.13372 18.1581 3.82116 17.8455C3.5086 17.5329 3.33301 17.109 3.33301 16.667V3.33366C3.33301 2.89163 3.5086 2.46771 3.82116 2.15515C4.13372 1.84259 4.55765 1.66699 4.99967 1.66699H11.6663C11.9301 1.66657 12.1914 1.71833 12.4351 1.8193C12.6788 1.92027 12.9001 2.06846 13.0863 2.25533L16.0763 5.24533C16.2637 5.43158 16.4123 5.65312 16.5136 5.89713C16.6149 6.14114 16.6668 6.4028 16.6663 6.66699V16.667C16.6663 17.109 16.4907 17.5329 16.1782 17.8455C15.8656 18.1581 15.4417 18.3337 14.9997 18.3337H4.99967Z" stroke="currentColor" stroke-width="1.66667" stroke-linecap="round" stroke-linejoin="round"/>
<path d="M11.667 1.66699V5.83366C11.667 6.05467 11.7548 6.26663 11.9111 6.42291C12.0674 6.57919 12.2793 6.66699 12.5003 6.66699H16.667" stroke="currentColor" stroke-width="1.66667" stroke-linecap="round" stroke-linejoin="round"/>
<path d="M8.33366 7.5H6.66699" stroke="currentColor" stroke-width="1.66667" stroke-linecap="round" stroke-linejoin="round"/>
<path d="M13.3337 10.833H6.66699" stroke="currentColor" stroke-width="1.66667" stroke-linecap="round" stroke-linejoin="round"/>
<path d="M13.3337 14.167H6.66699" stroke="currentColor" stroke-width="1.66667" stroke-linecap="round" stroke-linejoin="round"/>
</svg>
