<svg width="40" height="40" viewBox="0 0 40 40" fill="none" xmlns="http://www.w3.org/2000/svg">
<path d="M0 2C0 0.895431 0.895431 0 2 0H38C39.1046 0 40 0.895431 40 2V38C40 39.1046 39.1046 40 38 40H2C0.895431 40 0 39.1046 0 38V2Z" fill="#EEEEEE"/>
<path d="M20 21.6666V3.33325L33.3333 9.99992L20 16.6666M34.2686 17.0364C35.1555 19.77 35.2385 22.7008 34.5077 25.4801C33.7769 28.2595 32.263 30.7704 30.1462 32.7142C28.0294 34.658 25.3988 35.9527 22.5673 36.4444C19.7359 36.9362 16.8227 36.6041 14.1745 35.4879C11.5263 34.3716 9.25452 32.5181 7.62941 30.1479C6.00429 27.7777 5.09427 24.9905 5.00762 22.1179C4.92096 19.2454 5.66132 16.4084 7.1406 13.9445C8.61989 11.4807 10.7758 9.49358 13.3519 8.21973M13.3365 16.6617C12.5013 17.7734 11.9576 19.0764 11.7549 20.452C11.5522 21.8276 11.6969 23.2321 12.1758 24.5375C12.6548 25.8428 13.4527 27.0076 14.497 27.9257C15.5413 28.8437 16.7987 29.4859 18.1547 29.7936C19.5107 30.1014 20.9221 30.065 22.2604 29.6877C23.5987 29.3104 24.8213 28.6042 25.8168 27.6335C26.8124 26.6628 27.5492 25.4584 27.9602 24.1301C28.3712 22.8017 28.4432 21.3917 28.1698 20.0284" stroke="#2F5755" stroke-width="2" stroke-linecap="round" stroke-linejoin="round"/>
</svg>
