<svg width="40" height="40" viewBox="0 0 40 40" fill="none" xmlns="http://www.w3.org/2000/svg">
<path d="M0 2C0 0.895431 0.895431 0 2 0H38C39.1046 0 40 0.895431 40 2V38C40 39.1046 39.1046 40 38 40H2C0.895431 40 0 39.1046 0 38V2Z" fill="#EEEEEE"/>
<path d="M18.3333 23.3333H21.6666C22.5507 23.3333 23.3985 22.9821 24.0237 22.357C24.6488 21.7319 25 20.8841 25 20C25 19.1159 24.6488 18.2681 24.0237 17.643C23.3985 17.0179 22.5507 16.6667 21.6666 16.6667H16.6666C15.6666 16.6667 14.8333 17 14.3333 17.6667L4.99998 26.6667M11.6666 33.3334L14.3333 31C14.8333 30.3334 15.6666 30 16.6666 30H23.3333C25.1666 30 26.8333 29.3334 28 28L35.6666 20.6667C36.3098 20.0589 36.6852 19.2205 36.7102 18.336C36.7352 17.4514 36.4078 16.5932 35.8 15.95C35.1922 15.3069 34.3538 14.9315 33.4693 14.9065C32.5847 14.8815 31.7265 15.2089 31.0833 15.8167L24.0833 22.3167M3.33331 25L13.3333 35M32.5002 14.1667C33.6669 13 35.0002 11.5 35.0002 9.66667C35.1167 8.64821 34.8859 7.62026 34.3451 6.7494C33.8044 5.87853 32.9854 5.21579 32.0209 4.86857C31.0564 4.52135 30.0029 4.51 29.0311 4.83636C28.0594 5.16272 27.2263 5.80766 26.6669 6.66667C26.0719 5.87431 25.2386 5.29354 24.2893 5.00964C23.34 4.72574 22.3247 4.75365 21.3924 5.08927C20.4601 5.4249 19.6599 6.05056 19.1094 6.87441C18.5589 7.69826 18.287 8.6769 18.3336 9.66667C18.3336 11.6667 19.6669 13 20.8336 14.3333L26.6669 20L32.5002 14.1667Z" stroke="#2F5755" stroke-width="2" stroke-linecap="round" stroke-linejoin="round"/>
</svg>
