<svg viewBox="0 0 16 16" fill="none" xmlns="http://www.w3.org/2000/svg">
<path d="M1.3335 6.33333C1.33351 5.59146 1.55856 4.86705 1.97892 4.25577C2.39928 3.64449 2.99517 3.1751 3.6879 2.90959C4.38063 2.64409 5.1376 2.59496 5.85884 2.76869C6.58007 2.94242 7.23165 3.33085 7.7275 3.88266C7.76242 3.92 7.80464 3.94977 7.85155 3.97013C7.89845 3.99048 7.94903 4.00098 8.00016 4.00098C8.05129 4.00098 8.10188 3.99048 8.14878 3.97013C8.19568 3.94977 8.2379 3.92 8.27283 3.88266C8.76712 3.32726 9.41884 2.93557 10.1413 2.75973C10.8637 2.58388 11.6225 2.63222 12.3167 2.89832C13.011 3.16441 13.6078 3.63563 14.0276 4.24926C14.4474 4.86289 14.6704 5.58983 14.6668 6.33333C14.6668 7.85999 13.6668 8.99999 12.6668 9.99999L9.0055 13.542C8.88127 13.6847 8.72811 13.7993 8.55619 13.8782C8.38427 13.9571 8.19752 13.9986 8.00836 13.9998C7.81919 14.001 7.63193 13.9619 7.45902 13.8851C7.28611 13.8084 7.13151 13.6957 7.0055 13.5547L3.3335 9.99999C2.3335 8.99999 1.3335 7.86666 1.3335 6.33333Z" stroke="currentColor" stroke-width="2" stroke-linecap="round" stroke-linejoin="round"/>
</svg>
