<svg width="16" height="16" viewBox="0 0 16 16" fill="none" xmlns="http://www.w3.org/2000/svg">
<path d="M10.3335 5.00033L11.8668 6.53366C11.9914 6.65581 12.159 6.72423 12.3335 6.72423C12.508 6.72423 12.6755 6.65581 12.8002 6.53366L14.2002 5.13366C14.3223 5.00904 14.3907 4.84149 14.3907 4.66699C14.3907 4.49249 14.3223 4.32494 14.2002 4.20033L12.6668 2.66699" stroke="black" stroke-width="1.33333" stroke-linecap="round" stroke-linejoin="round"/>
<path d="M14.0001 1.33301L7.6001 7.73301" stroke="black" stroke-width="1.33333" stroke-linecap="round" stroke-linejoin="round"/>
<path d="M5.00016 14.0003C7.02521 14.0003 8.66683 12.3587 8.66683 10.3337C8.66683 8.30861 7.02521 6.66699 5.00016 6.66699C2.97512 6.66699 1.3335 8.30861 1.3335 10.3337C1.3335 12.3587 2.97512 14.0003 5.00016 14.0003Z" stroke="black" stroke-width="1.33333" stroke-linecap="round" stroke-linejoin="round"/>
</svg>
