<svg viewBox="0 0 24 24" fill="none" xmlns="http://www.w3.org/2000/svg">
<path d="M2.99218 16.3419C3.13922 16.7129 3.17195 17.1193 3.08618 17.5089L2.02118 20.7989C1.98686 20.9658 1.99574 21.1386 2.04696 21.3011C2.09817 21.4635 2.19004 21.6102 2.31385 21.7272C2.43765 21.8442 2.58929 21.9276 2.75438 21.9696C2.91947 22.0115 3.09254 22.0106 3.25718 21.9669L6.67018 20.9689C7.0379 20.896 7.41871 20.9279 7.76918 21.0609C9.90457 22.0582 12.3235 22.2691 14.5993 21.6567C16.8751 21.0442 18.8614 19.6476 20.2079 17.7133C21.5543 15.779 22.1743 13.4313 21.9585 11.0845C21.7427 8.73763 20.7049 6.54241 19.0282 4.88613C17.3516 3.22986 15.1439 2.21898 12.7946 2.03183C10.4452 1.84469 8.10531 2.49332 6.18762 3.86328C4.26993 5.23323 2.89771 7.23648 2.31307 9.51958C1.72843 11.8027 1.96895 14.2189 2.99218 16.3419Z" stroke="currentColor" stroke-width="2" stroke-linecap="round" stroke-linejoin="round"/>
</svg>
