<svg  viewBox="0 0 16 16" fill="none" xmlns="http://www.w3.org/2000/svg">
<path d="M6.66699 7.3335V11.3335" stroke="currentColor" stroke-width="1.33333" stroke-linecap="round" stroke-linejoin="round"/>
<path d="M9.33301 7.3335V11.3335" stroke="currentColor" stroke-width="1.33333" stroke-linecap="round" stroke-linejoin="round"/>
<path d="M12.6663 4V13.3333C12.6663 13.687 12.5259 14.0261 12.2758 14.2761C12.0258 14.5262 11.6866 14.6667 11.333 14.6667H4.66634C4.31272 14.6667 3.97358 14.5262 3.72353 14.2761C3.47348 14.0261 3.33301 13.687 3.33301 13.3333V4" stroke="currentColor" stroke-width="1.33333" stroke-linecap="round" stroke-linejoin="round"/>
<path d="M2 4H14" stroke="currentColor" stroke-width="1.33333" stroke-linecap="round" stroke-linejoin="round"/>
<path d="M5.33301 4.00016V2.66683C5.33301 2.31321 5.47348 1.97407 5.72353 1.72402C5.97358 1.47397 6.31272 1.3335 6.66634 1.3335H9.33301C9.68663 1.3335 10.0258 1.47397 10.2758 1.72402C10.5259 1.97407 10.6663 2.31321 10.6663 2.66683V4.00016" stroke="currentColor" stroke-width="1.33333" stroke-linecap="round" stroke-linejoin="round"/>
</svg>
