<svg width="16" height="16" viewBox="0 0 16 16" fill="none" xmlns="http://www.w3.org/2000/svg">
<path d="M8.33329 14H3.99996C3.64634 14 3.3072 13.8596 3.05715 13.6095C2.8071 13.3595 2.66663 13.0203 2.66663 12.6667V4.66671C2.66663 4.31309 2.8071 3.97395 3.05715 3.7239C3.3072 3.47385 3.64634 3.33337 3.99996 3.33337H12C12.3536 3.33337 12.6927 3.47385 12.9428 3.7239C13.1928 3.97395 13.3333 4.31309 13.3333 4.66671V8.00004" stroke="#6B7280" stroke-linecap="round" stroke-linejoin="round"/>
<path d="M10.6666 2V4.66667" stroke="#6B7280" stroke-linecap="round" stroke-linejoin="round"/>
<path d="M5.33337 2V4.66667" stroke="#6B7280" stroke-linecap="round" stroke-linejoin="round"/>
<path d="M2.66663 7.33337H13.3333" stroke="#6B7280" stroke-linecap="round" stroke-linejoin="round"/>
<path d="M10.6666 12.6666C10.6666 13.1971 10.8773 13.7058 11.2524 14.0808C11.6275 14.4559 12.1362 14.6666 12.6666 14.6666C13.1971 14.6666 13.7058 14.4559 14.0808 14.0808C14.4559 13.7058 14.6666 13.1971 14.6666 12.6666C14.6666 12.1362 14.4559 11.6275 14.0808 11.2524C13.7058 10.8773 13.1971 10.6666 12.6666 10.6666C12.1362 10.6666 11.6275 10.8773 11.2524 11.2524C10.8773 11.6275 10.6666 12.1362 10.6666 12.6666Z" stroke="#6B7280" stroke-linecap="round" stroke-linejoin="round"/>
</svg>
