<svg width="16" height="16" viewBox="0 0 16 16" fill="none" xmlns="http://www.w3.org/2000/svg">
<path d="M9.3315 2.66699C9.57202 2.66699 9.80807 2.73205 10.0146 2.85528C10.2212 2.97852 10.3906 3.15533 10.5048 3.36699L10.8288 3.96699C10.9431 4.17865 11.1125 4.35547 11.319 4.4787C11.5256 4.60193 11.7616 4.667 12.0022 4.66699H13.3335C13.6871 4.66699 14.0263 4.80747 14.2763 5.05752C14.5264 5.30756 14.6668 5.6467 14.6668 6.00033V12.0003C14.6668 12.3539 14.5264 12.6931 14.2763 12.9431C14.0263 13.1932 13.6871 13.3337 13.3335 13.3337H2.66683C2.31321 13.3337 1.97407 13.1932 1.72402 12.9431C1.47397 12.6931 1.3335 12.3539 1.3335 12.0003V6.00033C1.3335 5.6467 1.47397 5.30756 1.72402 5.05752C1.97407 4.80747 2.31321 4.66699 2.66683 4.66699H3.99816C4.23844 4.66701 4.47426 4.60209 4.68068 4.4791C4.8871 4.35612 5.05646 4.17964 5.17083 3.96833L5.49683 3.36566C5.6112 3.15435 5.78055 2.97787 5.98698 2.85488C6.1934 2.7319 6.42921 2.66698 6.6695 2.66699H9.3315Z" stroke="black" stroke-width="1.33333" stroke-linecap="round" stroke-linejoin="round"/>
<path d="M8 10.667C9.10457 10.667 10 9.77156 10 8.66699C10 7.56242 9.10457 6.66699 8 6.66699C6.89543 6.66699 6 7.56242 6 8.66699C6 9.77156 6.89543 10.667 8 10.667Z" stroke="black" stroke-width="1.33333" stroke-linecap="round" stroke-linejoin="round"/>
</svg>
