<svg width="40" height="40" viewBox="0 0 40 40" fill="none" xmlns="http://www.w3.org/2000/svg">
<path d="M0 2C0 0.895431 0.895431 0 2 0H38C39.1046 0 40 0.895431 40 2V38C40 39.1046 39.1046 40 38 40H2C0.895431 40 0 39.1046 0 38V2Z" fill="#EEEEEE"/>
<path d="M15 25C15 26.3261 15.5268 27.5979 16.4645 28.5355C17.4021 29.4732 18.6739 30 20 30C21.3261 30 22.5979 29.4732 23.5355 28.5355C24.4732 27.5979 25 26.3261 25 25C25 23.6739 24.4732 22.4021 23.5355 21.4645C22.5979 20.5268 21.3261 20 20 20C18.6739 20 17.4021 20.5268 16.4645 21.4645C15.5268 22.4021 15 23.6739 15 25Z" stroke="#2F5755" stroke-width="2" stroke-linecap="round" stroke-linejoin="round"/>
<path d="M16.6666 11.6667H23.3333" stroke="#2F5755" stroke-width="2" stroke-linecap="round" stroke-linejoin="round"/>
<path d="M16.6666 30V36.6667L20 35L23.3333 36.6667V30" stroke="#2F5755" stroke-width="2" stroke-linecap="round" stroke-linejoin="round"/>
<path d="M16.6667 31.6667H13.3333C12.4493 31.6667 11.6014 31.3155 10.9763 30.6904C10.3512 30.0652 10 29.2174 10 28.3333V8.33333C10 7.44928 10.3512 6.60143 10.9763 5.97631C11.6014 5.35119 12.4493 5 13.3333 5H26.6667C27.5507 5 28.3986 5.35119 29.0237 5.97631C29.6488 6.60143 30 7.44928 30 8.33333V28.3333C30 29.2174 29.6488 30.0652 29.0237 30.6904C28.3986 31.3155 27.5507 31.6667 26.6667 31.6667H23.3333" stroke="#2F5755" stroke-width="2" stroke-linecap="round" stroke-linejoin="round"/>
</svg>
