<svg width="40" height="40" viewBox="0 0 40 40" fill="none" xmlns="http://www.w3.org/2000/svg">
<path d="M0 2C0 0.895431 0.895431 0 2 0H38C39.1046 0 40 0.895431 40 2V38C40 39.1046 39.1046 40 38 40H2C0.895431 40 0 39.1046 0 38V2Z" fill="#EEEEEE"/>
<path d="M16.6666 8.6201C16.6666 6.30344 14.0383 4.4651 10.8333 5.0001C6.1283 5.78344 3.9783 15.0101 4.16664 16.6668C4.29997 17.8384 7.04164 19.5368 10.26 18.3334C12.3616 17.5468 13.5266 15.9168 14.1666 14.1668M23.7785 8.6201C23.7785 6.30344 26.4068 4.4651 29.6118 5.0001C34.3168 5.78344 36.4668 15.0101 36.2785 16.6668C36.1451 17.8384 33.4035 19.5368 30.1851 18.3334C28.0835 17.5468 27.0935 15.9168 26.4535 14.1668M13.3333 23.3333V24.1666M26.6667 23.3333V24.1666M7.36668 18.7451C6.90023 20.5462 6.665 22.3995 6.66668 24.2601C6.66668 31.2134 12.6367 35.0001 20 35.0001C27.3633 35.0001 33.3333 31.2134 33.3333 24.2601C33.3333 22.4917 33.0633 20.5934 32.5117 18.7451M17.1067 8.6084C18.0596 8.42117 19.0288 8.32906 20 8.3334C21.3 8.3334 22.5 8.5134 23.6017 8.8434M18.75 27.0832H21.25L20 28.3332L18.75 27.0832Z" stroke="#2F5755" stroke-width="2" stroke-linecap="round" stroke-linejoin="round"/>
</svg>
