<svg width="16" height="16" viewBox="0 0 16 16" fill="none" xmlns="http://www.w3.org/2000/svg">
<path d="M13.9903 8.32394C13.9278 9.48137 13.5314 10.5959 12.849 11.5329C12.1666 12.4698 11.2274 13.1891 10.145 13.6036C9.06254 14.0182 7.88319 14.1104 6.74948 13.869C5.61578 13.6276 4.57627 13.063 3.75661 12.2434C2.93695 11.4238 2.37223 10.3844 2.13071 9.25068C1.8892 8.117 1.98123 6.93764 2.39569 5.85515C2.81014 4.77266 3.52927 3.8334 4.46615 3.1509C5.40303 2.4684 6.51754 2.07188 7.67497 2.00927C7.94497 1.99461 8.0863 2.31594 7.94297 2.54461C7.46356 3.31164 7.25828 4.21852 7.36063 5.11724C7.46298 6.01596 7.86692 6.85346 8.50652 7.49306C9.14612 8.13266 9.98361 8.53659 10.8823 8.63894C11.7811 8.74129 12.6879 8.53601 13.455 8.05661C13.6843 7.91327 14.005 8.05394 13.9903 8.32394Z" stroke="#0A0A0A" stroke-width="1.33333" stroke-linecap="round" stroke-linejoin="round"/>
</svg>
