<svg viewBox="0 0 20 20" fill="none" xmlns="http://www.w3.org/2000/svg">
<path d="M16.6668 8.33341C16.6668 12.4942 12.051 16.8276 10.501 18.1659C10.3566 18.2745 10.1808 18.3332 10.0002 18.3332C9.8195 18.3332 9.64373 18.2745 9.49933 18.1659C7.94933 16.8276 3.3335 12.4942 3.3335 8.33341C3.3335 6.5653 4.03588 4.86961 5.28612 3.61937C6.53636 2.36913 8.23205 1.66675 10.0002 1.66675C11.7683 1.66675 13.464 2.36913 14.7142 3.61937C15.9645 4.86961 16.6668 6.5653 16.6668 8.33341Z" stroke="currentColor" stroke-width="2" stroke-linecap="round" stroke-linejoin="round"/>
<path d="M10 10.8333C11.3807 10.8333 12.5 9.71396 12.5 8.33325C12.5 6.95254 11.3807 5.83325 10 5.83325C8.61929 5.83325 7.5 6.95254 7.5 8.33325C7.5 9.71396 8.61929 10.8333 10 10.8333Z" stroke="currentColor" stroke-width="2" stroke-linecap="round" stroke-linejoin="round"/>
</svg>
