<svg width="16" height="16" viewBox="0 0 16 16" fill="none" xmlns="http://www.w3.org/2000/svg">
<path d="M3.99967 12H2.66634C2.31272 12 1.97358 11.8595 1.72353 11.6095C1.47348 11.3594 1.33301 11.0203 1.33301 10.6667V7.33333C1.33301 6.97971 1.47348 6.64057 1.72353 6.39052C1.97358 6.14048 2.31272 6 2.66634 6H13.333C13.6866 6 14.0258 6.14048 14.2758 6.39052C14.5259 6.64057 14.6663 6.97971 14.6663 7.33333V10.6667C14.6663 11.0203 14.5259 11.3594 14.2758 11.6095C14.0258 11.8595 13.6866 12 13.333 12H11.9997" stroke="#0A0A0A" stroke-width="1.33333" stroke-linecap="round" stroke-linejoin="round"/>
<path d="M4 5.99967V1.99967C4 1.82286 4.07024 1.65329 4.19526 1.52827C4.32029 1.40325 4.48986 1.33301 4.66667 1.33301H11.3333C11.5101 1.33301 11.6797 1.40325 11.8047 1.52827C11.9298 1.65329 12 1.82286 12 1.99967V5.99967" stroke="#0A0A0A" stroke-width="1.33333" stroke-linecap="round" stroke-linejoin="round"/>
<path d="M11.3333 9.33301H4.66667C4.29848 9.33301 4 9.63148 4 9.99967V13.9997C4 14.3679 4.29848 14.6663 4.66667 14.6663H11.3333C11.7015 14.6663 12 14.3679 12 13.9997V9.99967C12 9.63148 11.7015 9.33301 11.3333 9.33301Z" stroke="#0A0A0A" stroke-width="1.33333" stroke-linecap="round" stroke-linejoin="round"/>
</svg>
