<svg width="36" height="36" viewBox="0 0 36 36" fill="none" xmlns="http://www.w3.org/2000/svg">
<path d="M30 19.5002C30 27.0002 24.75 30.7502 18.51 32.9252C18.1832 33.0359 17.8283 33.0306 17.505 32.9102C11.25 30.7502 6 27.0002 6 19.5002V9.00019C6 8.60236 6.15804 8.22083 6.43934 7.93953C6.72064 7.65822 7.10218 7.50019 7.5 7.50019C10.5 7.50019 14.25 5.70019 16.86 3.42019C17.1778 3.14868 17.582 2.99951 18 2.99951C18.418 2.99951 18.8222 3.14868 19.14 3.42019C21.765 5.71519 25.5 7.50019 28.5 7.50019C28.8978 7.50019 29.2794 7.65822 29.5607 7.93953C29.842 8.22083 30 8.60236 30 9.00019V19.5002Z" stroke="white" stroke-width="3" stroke-linecap="round" stroke-linejoin="round"/>
</svg>
