<svg width="41" height="41" viewBox="0 0 41 41" fill="none" xmlns="http://www.w3.org/2000/svg">
<g clip-path="url(#clip0_73_8818)">
<path d="M8.15241 3.90617C8.15846 4.01289 8.19792 4.115 8.2652 4.19806C8.33249 4.28111 8.42419 4.3409 8.52733 4.36897C8.63047 4.39703 8.73982 4.39195 8.83992 4.35444C8.94001 4.31693 9.02577 4.24889 9.08506 4.15995C9.14435 4.07102 9.17417 3.96568 9.1703 3.85887C9.16643 3.75205 9.12906 3.64915 9.06349 3.56474C8.99791 3.48033 8.90745 3.41867 8.80491 3.38851C8.70236 3.35834 8.59293 3.36119 8.49209 3.39665H6.79368C5.89278 3.39665 5.02879 3.75453 4.39176 4.39156C3.75473 5.02858 3.39685 5.89258 3.39685 6.79347V15.2855C3.39685 17.9882 4.47049 20.5802 6.38157 22.4913C8.29266 24.4024 10.8846 25.476 13.5873 25.476M13.5873 25.476C16.29 25.476 18.882 24.4024 20.7931 22.4913C22.7042 20.5802 23.7778 17.9882 23.7778 15.2855V6.79347C23.7778 5.89258 23.4199 5.02858 22.7829 4.39156C22.1459 3.75453 21.2819 3.39665 20.381 3.39665H18.6826C18.6491 3.43011 18.6226 3.46982 18.6045 3.51354C18.5864 3.55725 18.577 3.6041 18.577 3.65141C18.577 3.69873 18.5864 3.74558 18.6045 3.78929C18.6226 3.833 18.6491 3.87272 18.6826 3.90617C18.716 3.93963 18.7557 3.96617 18.7994 3.98427C18.8432 4.00238 18.89 4.0117 18.9373 4.0117C18.9846 4.0117 19.0315 4.00238 19.0752 3.98427C19.1189 3.96617 19.1586 3.93963 19.1921 3.90617M13.5873 25.476V27.1746C13.5873 29.8773 14.661 32.4693 16.572 34.3804C18.4831 36.2914 21.0751 37.3651 23.7778 37.3651C26.4805 37.3651 29.0725 36.2914 30.9836 34.3804C32.8946 32.4693 33.9683 29.8773 33.9683 27.1746V20.3809M33.9683 20.3809C35.8443 20.3809 37.3651 18.8601 37.3651 16.9841C37.3651 15.1081 35.8443 13.5873 33.9683 13.5873C32.0923 13.5873 30.5715 15.1081 30.5715 16.9841C30.5715 18.8601 32.0923 20.3809 33.9683 20.3809Z" stroke="#EEEEEE" stroke-width="5.09524" stroke-linecap="round" stroke-linejoin="round"/>
</g>
<defs>
<clipPath id="clip0_73_8818">
<rect width="40.7619" height="40.7619" fill="white"/>
</clipPath>
</defs>
</svg>
