<svg width="16" height="16" viewBox="0 0 16 16" fill="none" xmlns="http://www.w3.org/2000/svg">
<g clip-path="url(#clip0_837_13372)">
<path d="M8 1.33301V2.66634" stroke="#0A0A0A" stroke-width="1.33333" stroke-linecap="round" stroke-linejoin="round"/>
<path d="M3.28711 3.28711L4.22711 4.22711" stroke="#0A0A0A" stroke-width="1.33333" stroke-linecap="round" stroke-linejoin="round"/>
<path d="M13.333 8H14.6663" stroke="#0A0A0A" stroke-width="1.33333" stroke-linecap="round" stroke-linejoin="round"/>
<path d="M12.7134 3.28711L11.7734 4.22711" stroke="#0A0A0A" stroke-width="1.33333" stroke-linecap="round" stroke-linejoin="round"/>
<path d="M10.6316 8.43305C10.7137 7.93605 10.6533 7.42598 10.4574 6.96188C10.2616 6.49779 9.93829 6.09866 9.52498 5.8107C9.11167 5.52275 8.62526 5.35775 8.12206 5.3348C7.61885 5.31185 7.11944 5.4319 6.68164 5.68105" stroke="#0A0A0A" stroke-width="1.33333" stroke-linecap="round" stroke-linejoin="round"/>
<path d="M8.66664 14.6667H4.66664C4.03595 14.6665 3.41824 14.4875 2.88525 14.1503C2.35227 13.8131 1.92587 13.3317 1.65559 12.7618C1.38531 12.192 1.28224 11.5572 1.35835 10.9311C1.43445 10.305 1.68661 9.71337 2.08555 9.22489C2.48448 8.7364 3.01381 8.37111 3.61205 8.17145C4.2103 7.97178 4.85292 7.94594 5.46527 8.09692C6.07762 8.24789 6.63457 8.5695 7.07144 9.02437C7.50831 9.47924 7.80717 10.0487 7.93331 10.6667H8.66664C9.19707 10.6667 9.70578 10.8774 10.0809 11.2525C10.4559 11.6275 10.6666 12.1362 10.6666 12.6667C10.6666 13.1971 10.4559 13.7058 10.0809 14.0809C9.70578 14.456 9.19707 14.6667 8.66664 14.6667Z" stroke="#0A0A0A" stroke-width="1.33333" stroke-linecap="round" stroke-linejoin="round"/>
</g>
<defs>
<clipPath id="clip0_837_13372">
<rect width="16" height="16" fill="white"/>
</clipPath>
</defs>
</svg>
