<svg  viewBox="0 0 20 20" fill="none" xmlns="http://www.w3.org/2000/svg">
<path d="M11.667 3.33366V12.117C12.3025 12.4839 12.7991 13.0502 13.0799 13.7281C13.3607 14.4061 13.41 15.1577 13.2201 15.8665C13.0302 16.5753 12.6117 17.2016 12.0295 17.6483C11.4474 18.095 10.7341 18.3371 10.0003 18.3371C9.26655 18.3371 8.55327 18.095 7.97112 17.6483C7.38898 17.2016 6.97049 16.5753 6.78057 15.8665C6.59066 15.1577 6.63992 14.4061 6.92073 13.7281C7.20153 13.0502 7.69819 12.4839 8.33366 12.117V3.33366C8.33366 2.89163 8.50926 2.46771 8.82182 2.15515C9.13438 1.84259 9.5583 1.66699 10.0003 1.66699C10.4424 1.66699 10.8663 1.84259 11.1788 2.15515C11.4914 2.46771 11.667 2.89163 11.667 3.33366Z" stroke="currentColor" stroke-width="1.66667" stroke-linecap="round" stroke-linejoin="round"/>
</svg>
