<svg viewBox="0 0 16 16" fill="none" xmlns="http://www.w3.org/2000/svg">
<path d="M8 2H3.33333C2.97971 2 2.64057 2.14048 2.39052 2.39052C2.14048 2.64057 2 2.97971 2 3.33333V12.6667C2 13.0203 2.14048 13.3594 2.39052 13.6095C2.64057 13.8595 2.97971 14 3.33333 14H12.6667C13.0203 14 13.3594 13.8595 13.6095 13.6095C13.8595 13.3594 14 13.0203 14 12.6667V8" stroke="currentColor" stroke-width="1.33333" stroke-linecap="round" stroke-linejoin="round"/>
<path d="M12.2504 1.74991C12.5156 1.48469 12.8753 1.33569 13.2504 1.33569C13.6255 1.33569 13.9852 1.48469 14.2504 1.74991C14.5156 2.01512 14.6646 2.37483 14.6646 2.74991C14.6646 3.12498 14.5156 3.48469 14.2504 3.74991L8.24172 9.75924C8.08342 9.9174 7.88786 10.0332 7.67305 10.0959L5.75772 10.6559C5.70036 10.6726 5.63955 10.6736 5.58166 10.6588C5.52377 10.644 5.47094 10.6139 5.42869 10.5716C5.38643 10.5294 5.35631 10.4765 5.34148 10.4186C5.32665 10.3607 5.32766 10.2999 5.34439 10.2426L5.90439 8.32724C5.96741 8.11261 6.08341 7.91728 6.24172 7.75924L12.2504 1.74991Z" stroke="currentColor" stroke-width="1.33333" stroke-linecap="round" stroke-linejoin="round"/>
</svg>
