<svg viewBox="0 0 20 20" fill="none" xmlns="http://www.w3.org/2000/svg">
<path d="M10 6.66699C11.3807 6.66699 12.5 5.5477 12.5 4.16699C12.5 2.78628 11.3807 1.66699 10 1.66699C8.61929 1.66699 7.5 2.78628 7.5 4.16699C7.5 5.5477 8.61929 6.66699 10 6.66699Z" stroke="currentColor" stroke-width="1.66667" stroke-linecap="round" stroke-linejoin="round"/>
<path d="M5.41693 6.66699C5.05631 6.67073 4.70663 6.79135 4.42039 7.01072C4.13414 7.2301 3.92678 7.53641 3.82943 7.88366L1.75026 15.417C1.68726 15.6608 1.68033 15.9157 1.73 16.1626C1.77966 16.4095 1.88462 16.6419 2.037 16.8424C2.18937 17.0429 2.3852 17.2063 2.60977 17.3202C2.83434 17.4342 3.08181 17.4957 3.33359 17.5003H16.6669C16.9242 17.5002 17.1779 17.4406 17.4082 17.3261C17.6385 17.2116 17.8393 17.0453 17.9946 16.8403C18.15 16.6353 18.2558 16.3972 18.3038 16.1444C18.3517 15.8917 18.3405 15.6313 18.2711 15.3837L16.1669 7.91699C16.0752 7.5615 15.8686 7.24626 15.5792 7.02023C15.2899 6.7942 14.9341 6.67002 14.5669 6.66699H5.41693Z" stroke="currentColor" stroke-width="1.66667" stroke-linecap="round" stroke-linejoin="round"/>
</svg>
