<svg width="16" height="16" viewBox="0 0 16 16" fill="none" xmlns="http://www.w3.org/2000/svg">
<path d="M7.33337 3.33337H8.66671" stroke="#6A7282" stroke-linecap="round" stroke-linejoin="round"/>
<path d="M12.6667 8C12.222 11.5553 11.1114 13.3333 9.33337 13.3333H6.66671C4.88871 13.3333 3.77804 11.5553 3.33337 8" stroke="#6A7282" stroke-linecap="round" stroke-linejoin="round"/>
<path d="M7.33337 10.6666C7.33337 11.1113 7.55537 11.3333 8.00004 11.3333C8.44471 11.3333 8.66671 11.1113 8.66671 10.6666H7.33337Z" stroke="#6A7282" stroke-linecap="round" stroke-linejoin="round"/>
<path d="M8 12V13.3333" stroke="#6A7282" stroke-linecap="round" stroke-linejoin="round"/>
<path d="M6.66663 7.33337V7.34004" stroke="#6A7282" stroke-linecap="round" stroke-linejoin="round"/>
<path d="M9.33337 7.33337V7.34004" stroke="#6A7282" stroke-linecap="round" stroke-linejoin="round"/>
<path d="M3.33338 2.66663L7.33338 3.31329L3.17471 7.77196C3.05789 7.90326 2.89481 7.98429 2.7196 7.99808C2.54439 8.01188 2.37064 7.95737 2.23471 7.84596C2.14253 7.77095 2.07323 7.67159 2.03469 7.55916C1.99616 7.44673 1.98993 7.32575 2.01671 7.20996L3.33338 2.66663Z" stroke="#6A7282" stroke-linecap="round" stroke-linejoin="round"/>
<path d="M12.6666 2.66663L8.66663 3.31329L12.8253 7.77196C13.064 8.04396 13.4846 8.07729 13.7653 7.84596C13.8575 7.77095 13.9268 7.67159 13.9653 7.55916C14.0038 7.44673 14.0101 7.32575 13.9833 7.20996L12.6666 2.66663Z" stroke="#6A7282" stroke-linecap="round" stroke-linejoin="round"/>
</svg>
