<svg width="55" height="57" viewBox="0 0 55 57" fill="none" xmlns="http://www.w3.org/2000/svg">
<path d="M22.8101 37.3449V18.6725" stroke="#EEEEEE" stroke-width="3.81936" stroke-linecap="round" stroke-linejoin="round"/>
<path d="M6.84302 28.0086C6.84302 30.7672 7.37402 33.4988 8.4057 36.0475C9.43738 38.5961 10.9495 40.9118 12.8558 42.8625C14.7621 44.8131 17.0253 46.3604 19.516 47.4161C22.0067 48.4718 24.6762 49.0151 27.3721 49.0151C30.068 49.0151 32.7375 48.4718 35.2282 47.4161C37.7189 46.3604 39.982 44.8131 41.8883 42.8625C43.7946 40.9118 45.3068 38.5961 46.3385 36.0475C47.3702 33.4988 47.9012 30.7672 47.9012 28.0086C47.9012 22.4374 45.7383 17.0943 41.8883 13.1548C38.0384 9.21531 32.8167 7.00214 27.3721 7.00214C21.9274 7.00214 16.7058 9.21531 12.8558 13.1548C9.0059 17.0943 6.84302 22.4374 6.84302 28.0086Z" stroke="#EEEEEE" stroke-width="3.81936" stroke-linecap="round" stroke-linejoin="round"/>
<path d="M31.9341 37.3449V18.6725" stroke="#EEEEEE" stroke-width="3.81936" stroke-linecap="round" stroke-linejoin="round"/>
<path d="M22.8101 28.0087H31.9341" stroke="#EEEEEE" stroke-width="3.81936" stroke-linecap="round" stroke-linejoin="round"/>
</svg>
