<svg width="41" height="41" viewBox="0 0 41 41" fill="none" xmlns="http://www.w3.org/2000/svg">
<path d="M8.49207 11.8889C8.49207 13.6907 9.20782 15.4186 10.4819 16.6927C11.7559 17.9668 13.4839 18.6825 15.2857 18.6825C17.0875 18.6825 18.8155 17.9668 20.0896 16.6927C21.3636 15.4186 22.0794 13.6907 22.0794 11.8889C22.0794 10.0871 21.3636 8.35909 20.0896 7.08503C18.8155 5.81097 17.0875 5.09521 15.2857 5.09521C13.4839 5.09521 11.7559 5.81097 10.4819 7.08503C9.20782 8.35909 8.49207 10.0871 8.49207 11.8889Z" stroke="#EEEEEE" stroke-width="5.09524" stroke-linecap="round" stroke-linejoin="round"/>
<path d="M5.09521 35.6667V32.2698C5.09521 30.4681 5.81097 28.7401 7.08503 27.466C8.35909 26.192 10.0871 25.4762 11.8889 25.4762H18.6825C20.4843 25.4762 22.2123 26.192 23.4864 27.466C24.7604 28.7401 25.4762 30.4681 25.4762 32.2698V35.6667" stroke="#EEEEEE" stroke-width="5.09524" stroke-linecap="round" stroke-linejoin="round"/>
<path d="M27.1746 5.31604C28.6359 5.6902 29.9311 6.54009 30.8561 7.73171C31.7811 8.92333 32.2831 10.3889 32.2831 11.8974C32.2831 13.4059 31.7811 14.8714 30.8561 16.0631C29.9311 17.2547 28.6359 18.1046 27.1746 18.4787" stroke="#EEEEEE" stroke-width="5.09524" stroke-linecap="round" stroke-linejoin="round"/>
<path d="M35.6666 35.6667V32.2699C35.658 30.7705 35.1536 29.316 34.2319 28.1333C33.3103 26.9505 32.0233 26.1059 30.5714 25.731" stroke="#EEEEEE" stroke-width="5.09524" stroke-linecap="round" stroke-linejoin="round"/>
</svg>
