<svg width="32" height="32" viewBox="0 0 32 32" fill="none" xmlns="http://www.w3.org/2000/svg">
<path d="M25.8047 5.52867C25.9296 5.65369 25.9999 5.82323 25.9999 6.00001C25.9999 6.17678 25.9296 6.34632 25.8047 6.47134L18.9427 13.3333H17.0573L14.724 15.6667H8.548C8.31226 14.8947 8.1537 14.1013 8.07467 13.298C7.85378 13.3091 7.60667 13.3147 7.33333 13.3147C6.55733 13.3147 5.36 13.2627 5 13C4.33333 12.1167 4 10.352 4 10.352C4 10.352 5.858 9.71801 6.66667 9.43134C6.66667 7.28201 9.44533 6.05534 10.8573 7.86667C11.208 7.86467 11.608 7.97734 11.9827 8.20734C12.66 8.62334 12.916 10.498 12.7693 11.3467C13.8393 12.6067 15.208 13.124 17 13.3147L17.0687 13.322L24.862 5.52867C24.987 5.40369 25.1566 5.33348 25.3333 5.33348C25.5101 5.33348 25.6796 5.40369 25.8047 5.52867ZM18.8647 13.412L15.6667 16.6093V21.086C17.488 20.8427 19.0447 20.4647 21 19.3333C22.4253 21.946 23.6193 22.6967 24.232 23.0827C24.4787 23.238 24.632 23.334 24.6667 23.4687C24.7467 23.7753 24.8307 24 24.896 24.1753C24.9787 24.3947 25.032 24.5373 25.012 24.6667H24.6667C24.4899 24.6667 24.3203 24.7369 24.1953 24.8619C24.0702 24.987 24 25.1565 24 25.3333C24 25.5102 24.0702 25.6797 24.1953 25.8047C24.3203 25.9298 24.4899 26 24.6667 26H26C26.1768 26 26.3464 25.9298 26.4714 25.8047C26.5964 25.6797 26.6667 25.5102 26.6667 25.3333V22.318C26.6667 21 24.6667 17.4853 24.6667 17.4853L27.6667 21.3333C27.9367 21.502 28.3013 21.178 28 20.6667C27.874 20.3307 27.7367 19.8907 27.5807 19.392C26.838 17.014 25.6827 13.3147 23.4127 13.3147C23.084 13.3147 22.6113 13.332 22.0553 13.3513C21.1307 13.3847 19.9747 13.4267 18.8647 13.412ZM14.2867 21.2473L14.3333 21.2427V17H9.05733C9.59533 18.1687 10.2393 19.0147 10.7387 19.6707C10.8316 19.792 10.9187 19.9076 11 20.0173C11.3193 20.448 12.25 23.2207 10.8633 24.6667H10.6667C10.4899 24.6667 10.3203 24.7369 10.1953 24.8619C10.0702 24.987 10 25.1565 10 25.3333C10 25.5102 10.0702 25.6797 10.1953 25.8047C10.3203 25.9298 10.4899 26 10.6667 26H12.6667C12.813 26 12.9552 25.9519 13.0714 25.8632C13.1877 25.7744 13.2715 25.6498 13.31 25.5087H13.3113C13.3149 25.5087 13.318 25.508 13.3207 25.5067C13.3487 25.492 13.3467 25.416 13.3407 25.2453C13.3359 25.1134 13.3335 24.9814 13.3333 24.8493V21.35L13.9553 21.2833L13.96 21.2827L14.2867 21.2473Z" fill="#2F5755"/>
</svg>
